<svg width="78" height="151" viewBox="0 0 78 151" fill="none" xmlns="http://www.w3.org/2000/svg">
<line x1="-0.471191" y1="49.9102" x2="-0.471194" y2="0.000183126" stroke="#DD905A"/>
<line y1="-0.5" x2="50.0191" y2="-0.5" transform="matrix(0.18352 -0.983016 0.986414 0.164276 4.11523 50.3906)" stroke="#DD905A"/>
<line y1="-0.5" x2="49.951" y2="-0.5" transform="matrix(0.0922359 -0.995737 0.996603 0.0823513 1.94092 50.0781)" stroke="#DD905A"/>
<line y1="-0.5" x2="50.13" y2="-0.5" transform="matrix(0.272927 -0.962035 0.969437 0.24534 6.33838 51.0059)" stroke="#DD905A"/>
<line y1="-0.5" x2="50.2802" y2="-0.5" transform="matrix(0.359586 -0.933112 0.945682 0.325093 8.54541 51.6973)" stroke="#DD905A"/>
<line y1="-0.5" x2="50.4647" y2="-0.5" transform="matrix(0.442699 -0.89667 0.915173 0.403062 10.687 52.6055)" stroke="#DD905A"/>
<line y1="-0.5" x2="50.6776" y2="-0.5" transform="matrix(0.521557 -0.853216 0.877952 0.478748 12.6792 53.666)" stroke="#DD905A"/>
<line y1="-0.5" x2="50.9122" y2="-0.5" transform="matrix(0.59555 -0.803318 0.834096 0.551619 14.6343 54.9121)" stroke="#DD905A"/>
<line y1="-0.5" x2="51.4163" y2="-0.5" transform="matrix(0.726997 -0.68664 0.726997 0.68664 18.1416 57.8984)" stroke="#DD905A"/>
<line y1="-0.5" x2="51.161" y2="-0.5" transform="matrix(0.664167 -0.747584 0.78372 0.621114 16.3594 56.332)" stroke="#DD905A"/>
<line y1="-0.5" x2="51.6703" y2="-0.5" transform="matrix(0.78372 -0.621114 0.664167 0.747584 19.6367 59.6289)" stroke="#DD905A"/>
<line y1="-0.5" x2="51.9155" y2="-0.5" transform="matrix(0.834096 -0.551619 0.59555 0.803318 21.0166 61.4961)" stroke="#DD905A"/>
<line y1="-0.5" x2="52.1444" y2="-0.5" transform="matrix(0.877952 -0.478748 0.521557 0.853216 22.1758 63.4336)" stroke="#DD905A"/>
<line y1="-0.5" x2="52.3505" y2="-0.5" transform="matrix(0.915173 -0.403062 0.442699 0.89667 23.1274 65.4668)" stroke="#DD905A"/>
<line y1="-0.5" x2="52.5278" y2="-0.5" transform="matrix(0.945682 -0.325093 0.359586 0.933112 23.9604 67.5195)" stroke="#DD905A"/>
<line y1="-0.5" x2="52.6711" y2="-0.5" transform="matrix(0.969437 -0.24534 0.272927 0.962035 24.5059 69.498)" stroke="#DD905A"/>
<line y1="-0.5" x2="52.7765" y2="-0.5" transform="matrix(0.986414 -0.164276 0.18352 0.983016 24.9365 71.5957)" stroke="#DD905A"/>
<line y1="-0.5" x2="52.8409" y2="-0.5" transform="matrix(0.996603 -0.0823513 0.0922359 0.995737 25.0664 73.6426)" stroke="#DD905A"/>
<line x1="25.1567" y1="74.9902" x2="78.0002" y2="74.9902" stroke="#DD905A"/>
<line y1="-0.5" x2="50.0191" y2="-0.5" transform="matrix(0.18352 0.983016 0.986414 -0.164276 4.11475 100.535)" stroke="#DD905A"/>
<line y1="-0.5" x2="49.951" y2="-0.5" transform="matrix(0.0922359 0.995737 0.996603 -0.0823513 1.94092 100.85)" stroke="#DD905A"/>
<line y1="-0.5" x2="50.13" y2="-0.5" transform="matrix(0.272927 0.962035 0.969437 -0.24534 6.33838 99.9199)" stroke="#DD905A"/>
<line y1="-0.5" x2="50.2802" y2="-0.5" transform="matrix(0.359586 0.933112 0.945682 -0.325093 8.54541 99.2285)" stroke="#DD905A"/>
<line y1="-0.5" x2="50.4647" y2="-0.5" transform="matrix(0.442699 0.89667 0.915173 -0.403062 10.687 98.3223)" stroke="#DD905A"/>
<line y1="-0.5" x2="50.6776" y2="-0.5" transform="matrix(0.521557 0.853216 0.877952 -0.478748 12.6792 97.2598)" stroke="#DD905A"/>
<line y1="-0.5" x2="50.9122" y2="-0.5" transform="matrix(0.59555 0.803318 0.834096 -0.551619 14.6338 96.0137)" stroke="#DD905A"/>
<line y1="-0.5" x2="51.4163" y2="-0.5" transform="matrix(0.726997 0.68664 0.726997 -0.68664 18.1416 93.0293)" stroke="#DD905A"/>
<line y1="-0.5" x2="51.161" y2="-0.5" transform="matrix(0.664167 0.747584 0.78372 -0.621114 16.3589 94.5938)" stroke="#DD905A"/>
<line y1="-0.5" x2="51.6703" y2="-0.5" transform="matrix(0.78372 0.621114 0.664167 -0.747584 19.6362 91.2988)" stroke="#DD905A"/>
<line y1="-0.5" x2="51.9155" y2="-0.5" transform="matrix(0.834096 0.551619 0.59555 -0.803318 21.0166 89.4316)" stroke="#DD905A"/>
<line y1="-0.5" x2="52.1444" y2="-0.5" transform="matrix(0.877952 0.478748 0.521557 -0.853216 22.1758 87.4922)" stroke="#DD905A"/>
<line y1="-0.5" x2="52.3505" y2="-0.5" transform="matrix(0.915173 0.403062 0.442699 -0.89667 23.127 85.4609)" stroke="#DD905A"/>
<line y1="-0.5" x2="52.5278" y2="-0.5" transform="matrix(0.945682 0.325093 0.359586 -0.933112 23.9604 83.4062)" stroke="#DD905A"/>
<line y1="-0.5" x2="52.6711" y2="-0.5" transform="matrix(0.969437 0.24534 0.272927 -0.962035 24.5059 81.4277)" stroke="#DD905A"/>
<line y1="-0.5" x2="52.7765" y2="-0.5" transform="matrix(0.986414 0.164276 0.18352 -0.983016 24.9365 79.3301)" stroke="#DD905A"/>
<line y1="-0.5" x2="52.8409" y2="-0.5" transform="matrix(0.996603 0.0823513 0.0922359 -0.995737 25.0664 77.2832)" stroke="#DD905A"/>
<line x1="0.471191" y1="101.016" x2="0.471194" y2="150.926" stroke="#DD905A"/>
</svg>
