<svg width="279" height="176" viewBox="0 0 279 176" fill="none" xmlns="http://www.w3.org/2000/svg">
<line x1="103.564" y1="111.977" x2="103.564" y2="-0.000976542" stroke="#DD905A"/>
<line y1="-0.5" x2="112.222" y2="-0.5" transform="matrix(0.18352 -0.983016 0.986414 0.164276 113.232 113.055)" stroke="#DD905A"/>
<line y1="-0.5" x2="112.07" y2="-0.5" transform="matrix(0.0922359 -0.995737 0.996603 0.0823513 108.354 112.354)" stroke="#DD905A"/>
<line y1="-0.5" x2="112.471" y2="-0.5" transform="matrix(0.272927 -0.962035 0.969437 0.24534 118.221 114.434)" stroke="#DD905A"/>
<line y1="-0.5" x2="112.808" y2="-0.5" transform="matrix(0.359586 -0.933112 0.945682 0.325093 123.172 115.986)" stroke="#DD905A"/>
<line y1="-0.5" x2="113.222" y2="-0.5" transform="matrix(0.442699 -0.89667 0.915173 0.403062 127.977 118.023)" stroke="#DD905A"/>
<line y1="-0.5" x2="113.7" y2="-0.5" transform="matrix(0.521557 -0.853216 0.877952 0.478748 132.447 120.404)" stroke="#DD905A"/>
<line y1="-0.5" x2="114.226" y2="-0.5" transform="matrix(0.59555 -0.803318 0.834096 0.551619 136.833 123.197)" stroke="#DD905A"/>
<line y1="-0.5" x2="115.357" y2="-0.5" transform="matrix(0.726997 -0.68664 0.726997 0.68664 144.702 129.898)" stroke="#DD905A"/>
<line y1="-0.5" x2="114.784" y2="-0.5" transform="matrix(0.664167 -0.747584 0.78372 0.621114 140.703 126.385)" stroke="#DD905A"/>
<line y1="-0.5" x2="115.927" y2="-0.5" transform="matrix(0.78372 -0.621114 0.664167 0.747584 148.056 133.781)" stroke="#DD905A"/>
<line y1="-0.5" x2="116.477" y2="-0.5" transform="matrix(0.834096 -0.551619 0.59555 0.803318 151.153 137.969)" stroke="#DD905A"/>
<line y1="-0.5" x2="116.991" y2="-0.5" transform="matrix(0.877952 -0.478748 0.521557 0.853216 153.753 142.318)" stroke="#DD905A"/>
<line y1="-0.5" x2="117.453" y2="-0.5" transform="matrix(0.915173 -0.403062 0.442699 0.89667 155.888 146.879)" stroke="#DD905A"/>
<line y1="-0.5" x2="117.851" y2="-0.5" transform="matrix(0.945682 -0.325093 0.359586 0.933112 157.757 151.486)" stroke="#DD905A"/>
<line y1="-0.5" x2="118.172" y2="-0.5" transform="matrix(0.969437 -0.24534 0.272927 0.962035 158.981 155.924)" stroke="#DD905A"/>
<line y1="-0.5" x2="118.409" y2="-0.5" transform="matrix(0.986414 -0.164276 0.18352 0.983016 159.947 160.631)" stroke="#DD905A"/>
<line y1="-0.5" x2="118.553" y2="-0.5" transform="matrix(0.996603 -0.0823513 0.0922359 0.995737 160.238 165.225)" stroke="#DD905A"/>
<line x1="160.441" y1="168.867" x2="279" y2="168.867" stroke="#DD905A"/>
<line y1="-0.5" x2="118.553" y2="-0.5" transform="matrix(0.996603 0.0823513 0.0922359 -0.995737 160.239 173.393)" stroke="#DD905A"/>
<line y1="-0.5" x2="112.222" y2="-0.5" transform="matrix(-0.18352 -0.983016 -0.986414 0.164276 94.7675 113.057)" stroke="#DD905A"/>
<line y1="-0.5" x2="112.07" y2="-0.5" transform="matrix(-0.0922359 -0.995737 -0.996603 0.0823513 99.6455 112.355)" stroke="#DD905A"/>
<line y1="-0.5" x2="112.471" y2="-0.5" transform="matrix(-0.272927 -0.962035 -0.969437 0.24534 89.7791 114.436)" stroke="#DD905A"/>
<line y1="-0.5" x2="112.808" y2="-0.5" transform="matrix(-0.359586 -0.933112 -0.945682 0.325093 84.8274 115.988)" stroke="#DD905A"/>
<line y1="-0.5" x2="113.222" y2="-0.5" transform="matrix(-0.442699 -0.89667 -0.915173 0.403062 80.0231 118.023)" stroke="#DD905A"/>
<line y1="-0.5" x2="113.7" y2="-0.5" transform="matrix(-0.521557 -0.853216 -0.877952 0.478748 75.5532 120.408)" stroke="#DD905A"/>
<line y1="-0.5" x2="114.226" y2="-0.5" transform="matrix(-0.59555 -0.803318 -0.834096 0.551619 71.1673 123.199)" stroke="#DD905A"/>
<line y1="-0.5" x2="115.357" y2="-0.5" transform="matrix(-0.726997 -0.68664 -0.726997 0.68664 63.2979 129.898)" stroke="#DD905A"/>
<line y1="-0.5" x2="114.784" y2="-0.5" transform="matrix(-0.664167 -0.747584 -0.78372 0.621114 67.297 126.387)" stroke="#DD905A"/>
<line y1="-0.5" x2="115.927" y2="-0.5" transform="matrix(-0.78372 -0.621114 -0.664167 0.747584 59.944 133.783)" stroke="#DD905A"/>
<line y1="-0.5" x2="116.477" y2="-0.5" transform="matrix(-0.834096 -0.551619 -0.59555 0.803318 56.8472 137.969)" stroke="#DD905A"/>
<line y1="-0.5" x2="116.991" y2="-0.5" transform="matrix(-0.877952 -0.478748 -0.521557 0.853216 54.2469 142.318)" stroke="#DD905A"/>
<line y1="-0.5" x2="117.453" y2="-0.5" transform="matrix(-0.915173 -0.403062 -0.442699 0.89667 52.1121 146.879)" stroke="#DD905A"/>
<line y1="-0.5" x2="117.851" y2="-0.5" transform="matrix(-0.945682 -0.325093 -0.359586 0.933112 50.2425 151.488)" stroke="#DD905A"/>
<line y1="-0.5" x2="118.172" y2="-0.5" transform="matrix(-0.969437 -0.24534 -0.272927 0.962035 49.019 155.928)" stroke="#DD905A"/>
<line y1="-0.5" x2="118.409" y2="-0.5" transform="matrix(-0.986414 -0.164276 -0.18352 0.983016 48.0525 160.635)" stroke="#DD905A"/>
<line y1="-0.5" x2="118.553" y2="-0.5" transform="matrix(-0.996603 -0.0823513 -0.0922359 0.995737 47.7615 165.225)" stroke="#DD905A"/>
<line y1="-0.5" x2="118.553" y2="-0.5" transform="matrix(-0.996603 0.0823513 -0.0922359 -0.995737 47.7616 173.389)" stroke="#DD905A"/>
<line x1="47.559" y1="169.746" x2="-71" y2="169.746" stroke="#DD905A"/>
</svg>
