<svg width="76" height="76" viewBox="0 0 76 76" fill="none" xmlns="http://www.w3.org/2000/svg">
<g filter="url(#filter0_f_21_864)">
<circle cx="38" cy="38" r="23" fill="white"/>
</g>
<path d="M36.2402 41.0356L43.0353 34.2405C43.1956 34.0802 43.3827 34 43.5965 34C43.8103 34 43.9974 34.0802 44.1578 34.2405C44.3181 34.4009 44.3983 34.5914 44.3983 34.8122C44.3983 35.033 44.3181 35.2233 44.1578 35.3831L36.8014 42.7595C36.6411 42.9198 36.454 43 36.2402 43C36.0264 43 35.8393 42.9198 35.6789 42.7595L32.2313 39.3118C32.0709 39.1514 31.994 38.9612 32.0004 38.7409C32.0068 38.5207 32.0904 38.3302 32.2513 38.1693C32.4122 38.0084 32.6028 37.9282 32.823 37.9287C33.0432 37.9293 33.2335 38.0094 33.3939 38.1693L36.2402 41.0356Z" fill="#DD905A"/>
<defs>
<filter id="filter0_f_21_864" x="0" y="0" width="76" height="76" filterUnits="userSpaceOnUse" color-interpolation-filters="sRGB">
<feFlood flood-opacity="0" result="BackgroundImageFix"/>
<feBlend mode="normal" in="SourceGraphic" in2="BackgroundImageFix" result="shape"/>
<feGaussianBlur stdDeviation="7.5" result="effect1_foregroundBlur_21_864"/>
</filter>
</defs>
</svg>
