<svg width="35" height="35" viewBox="0 0 35 35" fill="none" xmlns="http://www.w3.org/2000/svg">
<circle cx="17.5" cy="17.5" r="17.5" fill="white"/>
<path d="M23.3589 20.8879V22.7521C23.3596 22.9252 23.3241 23.0965 23.2548 23.2551C23.1855 23.4136 23.0838 23.556 22.9562 23.673C22.8287 23.79 22.6782 23.8791 22.5142 23.9345C22.3503 23.9899 22.1765 24.0105 22.0042 23.995C20.092 23.7872 18.2551 23.1338 16.6413 22.0872C15.1399 21.1331 13.8669 19.8601 12.9128 18.3587C11.8626 16.7375 11.209 14.8918 11.005 12.971C10.9895 12.7991 11.0099 12.6259 11.065 12.4624C11.1201 12.2989 11.2086 12.1486 11.3249 12.0212C11.4413 11.8938 11.5828 11.792 11.7407 11.7222C11.8985 11.6525 12.0691 11.6164 12.2417 11.6163H14.1059C14.4075 11.6133 14.6999 11.7201 14.9285 11.9167C15.1572 12.1134 15.3066 12.3865 15.3488 12.6851C15.4275 13.2817 15.5734 13.8675 15.7838 14.4313C15.8674 14.6537 15.8855 14.8955 15.8359 15.1278C15.7863 15.3602 15.6712 15.5735 15.5041 15.7425L14.7149 16.5317C15.5995 18.0875 16.8877 19.3756 18.4434 20.2602L19.2326 19.471C19.4016 19.3039 19.6149 19.1888 19.8473 19.1392C20.0797 19.0897 20.3214 19.1078 20.5438 19.1914C21.1076 19.4018 21.6934 19.5477 22.29 19.6264C22.5919 19.669 22.8676 19.821 23.0646 20.0536C23.2617 20.2862 23.3664 20.5831 23.3589 20.8879Z" fill="#DD905A"/>
</svg>
